<svg width="32" height="13" viewBox="0 0 32 13" fill="none" xmlns="http://www.w3.org/2000/svg">
<path d="M20.3538 3.70805C19.9393 4.1323 19.9393 4.81983 20.3538 5.24407L21.8087 6.73154C21.9027 6.83865 22.2973 7.3372 22.1524 8.01136C22.145 8.04603 22.1515 8.08383 22.1778 8.11085C22.2169 8.15074 22.2805 8.15074 22.3193 8.11085L23.2747 7.13374C23.8084 6.58847 23.8084 5.70429 23.2747 5.15876L21.856 3.70805C21.4412 3.28434 20.7686 3.28434 20.3538 3.70805Z" fill="black"/>
<path d="M29.0684 12.623C29.4832 12.1993 29.4832 11.5115 29.0684 11.0875L27.6132 9.60007C27.5195 9.49271 27.1249 8.99444 27.2696 8.32001C27.2772 8.28533 27.2704 8.24753 27.2441 8.22051C27.205 8.18085 27.1415 8.18085 27.1026 8.22051L26.1473 9.19789C25.6138 9.74289 25.6138 10.6271 26.1473 11.1726L27.5662 12.623C27.9808 13.0473 28.6534 13.0473 29.0684 12.623Z" fill="black"/>
<path d="M20.3496 11.0919L27.5734 3.71052C27.7829 3.49683 28.0599 3.39129 28.3356 3.3947C28.6036 3.39842 28.8698 3.50339 29.0727 3.71131C29.2785 3.92132 29.3814 4.19881 29.3817 4.47605C29.3822 4.75458 29.2791 5.03285 29.0725 5.24392L21.8486 12.6253C21.6422 12.8361 21.3705 12.9417 21.0988 12.9412C20.8271 12.9412 20.5551 12.8356 20.349 12.6251C20.1485 12.419 20.045 12.1494 20.04 11.8784C20.0353 11.5939 20.1385 11.308 20.3496 11.0919Z" fill="black"/>
<path d="M1.58618 5.48677H0.868957C0.389061 5.48677 0 5.08905 0 4.59865C0 4.10825 0.389061 3.7108 0.868957 3.7108H1.58618V3.04214C1.58618 2.00465 1.84398 1.23124 2.32597 0.738748C2.80744 0.246253 3.47845 0 4.37288 0C4.7475 0 5.06253 0.0280605 5.34343 0.0753521C5.75769 0.144634 6.05881 0.51586 6.05881 0.945615C6.05828 1.46227 5.62669 1.86866 5.12291 1.82377C5.03102 1.81588 4.93652 1.81119 4.83754 1.81119C4.04603 1.81119 3.63308 2.25091 3.63308 3.21832V3.72814H5.18119C5.6561 3.72814 6.04122 4.12192 6.04122 4.6076C6.04122 5.09327 5.6561 5.48679 5.18119 5.48679H3.66747V11.8795C3.66747 12.4668 3.20149 12.9433 2.62708 12.9433C2.05216 12.9433 1.58618 12.4668 1.58618 11.8795V5.48677Z" fill="black"/>
<path d="M8.2383 0.1055C8.81297 0.1055 9.27895 0.58198 9.27895 1.16925V11.8795C9.27895 12.467 8.81297 12.9435 8.2383 12.9435C7.66363 12.9435 7.19765 12.467 7.19765 11.8795V1.16925C7.19765 0.58198 7.66363 0.1055 8.2383 0.1055Z" fill="black"/>
<path d="M17.498 7.439C17.5518 7.439 17.5946 7.39041 17.5878 7.33557C17.4216 6.01375 16.6359 4.99437 15.2944 4.99437C14.0532 4.99437 13.1719 5.9476 12.9532 7.33241C12.9448 7.38755 12.9879 7.439 13.0425 7.439H17.498ZM10.8737 8.12472V7.99766C10.8737 5.09519 13.4239 2.80649 16.2156 3.33548C18.5061 3.7697 19.6636 5.86963 19.6636 8.24784C19.6633 8.57837 19.4013 8.84561 19.0782 8.84561L13.0619 8.84588C13.0062 8.84588 12.9629 8.89893 12.9729 8.95482C13.2296 10.3987 14.2606 11.2026 15.5695 11.2026C16.34 11.2026 16.942 10.9791 17.5033 10.557C17.8301 10.3105 18.2764 10.3186 18.5799 10.5938C18.9645 10.9427 18.9648 11.5667 18.567 11.899C17.7881 12.5496 16.8002 12.9436 15.5354 12.9436C12.9036 12.9436 10.8737 10.9912 10.8737 8.12472Z" fill="black"/>
<path d="M31.3035 11.8578C31.3035 11.7656 31.2371 11.7194 31.1048 11.7194H30.8688V12.014H31.0956C31.1617 12.014 31.2129 12.0011 31.2489 11.9751C31.2851 11.9492 31.3035 11.9103 31.3035 11.8578ZM31.2901 12.3298C31.2901 12.2689 31.2838 12.2232 31.2712 12.1922C31.2584 12.1615 31.2371 12.1411 31.2069 12.129C31.1772 12.1172 31.1334 12.1117 31.0764 12.1117H30.8688V12.4721H30.7638V11.6199H31.1279C31.2132 11.6199 31.2812 11.6397 31.3321 11.6796C31.3828 11.7189 31.4083 11.7764 31.4083 11.852C31.4083 11.9069 31.3957 11.9515 31.3691 11.9867C31.3429 12.0219 31.3046 12.0458 31.2536 12.0592V12.0629C31.3046 12.0784 31.3405 12.1033 31.3618 12.1372C31.3825 12.171 31.393 12.2278 31.393 12.3068C31.393 12.3874 31.4022 12.4425 31.4201 12.4724H31.3151C31.3072 12.4614 31.3012 12.4417 31.2967 12.4149C31.2922 12.3881 31.2901 12.3598 31.2901 12.3298ZM31.6984 12.0395C31.6984 11.9237 31.6708 11.8166 31.6152 11.7179C31.5603 11.6192 31.4847 11.5399 31.3894 11.4819C31.2938 11.4233 31.188 11.3942 31.0728 11.3942C30.9607 11.3942 30.8572 11.4228 30.7619 11.4808C30.6664 11.5386 30.5908 11.6168 30.5349 11.7161C30.4789 11.8145 30.4509 11.9227 30.4509 12.0395C30.4509 12.1553 30.4784 12.2626 30.5336 12.3616C30.5895 12.4606 30.6645 12.5388 30.7598 12.5976C30.8549 12.6557 30.9599 12.685 31.0746 12.685C31.1888 12.685 31.2938 12.6556 31.3894 12.5976C31.4847 12.5388 31.5603 12.4606 31.6152 12.3616C31.6708 12.2626 31.6984 12.1553 31.6984 12.0395ZM30.3458 12.0395C30.3458 11.903 30.3794 11.7775 30.4461 11.6636C30.5128 11.5488 30.6018 11.459 30.7139 11.3934C30.826 11.3278 30.947 11.2947 31.0765 11.2947C31.2075 11.2947 31.3287 11.328 31.4398 11.3952C31.5514 11.4617 31.6396 11.5522 31.7049 11.6662C31.7706 11.7801 31.8031 11.9043 31.8031 12.0395C31.8031 12.1694 31.7714 12.2918 31.7078 12.4065C31.6446 12.5207 31.5574 12.6123 31.4469 12.6816C31.3358 12.7502 31.2124 12.7845 31.0765 12.7845C30.9428 12.7845 30.8205 12.7509 30.7092 12.684C30.5979 12.6173 30.5097 12.5267 30.4443 12.4123C30.3787 12.2978 30.3458 12.1736 30.3458 12.0395Z" fill="black"/>
</svg>
